<?xml version="1.0" standalone="no"?>
<!DOCTYPE svg PUBLIC "-//W3C//DTD SVG 20010904//EN"
 "http://www.w3.org/TR/2001/REC-SVG-20010904/DTD/svg10.dtd">
<svg version="1.0"
  xmlns="http://www.w3.org/2000/svg" width="357.000000pt" height="358.000000pt" viewBox="0 0 357.000000 358.000000" preserveAspectRatio="xMidYMid meet">

  <g transform="translate(0.000000,358.000000) scale(0.100000,-0.100000)" fill="#623bc1" stroke="none">
    <path d="M774 3066 c-62 -20 -114 -64 -140 -121 l-24 -50 0 -645 c0 -720 -3
-687 71 -757 53 -50 101 -65 229 -72 l115 -6 3 -185 c2 -174 3 -186 23 -203
12 -9 27 -17 35 -17 12 0 199 138 471 346 l81 63 424 3 c469 3 465 3 537 71
74 70 71 37 71 757 l0 645 -24 50 c-27 58 -78 102 -144 121 -64 20 -1666 19
-1728 0z m1710 -110 c18 -7 42 -26 54 -41 l22 -28 0 -631 c0 -615 -1 -632 -20
-664 -37 -61 -44 -62 -515 -62 l-426 0 -122 -92 c-67 -50 -168 -127 -224 -170
-57 -43 -105 -78 -108 -78 -3 0 -5 66 -5 148 0 201 11 189 -182 194 -132 3
-157 6 -182 23 -57 38 -56 30 -56 697 0 575 1 615 18 647 10 19 34 43 53 53
32 17 78 18 847 18 668 0 819 -2 846 -14z"/>
    <path d="M977 2493 c-4 -3 -7 -105 -7 -225 l0 -218 118 0 c138 0 178 9 218 51
25 26 29 38 29 86 0 50 -3 58 -31 81 l-31 24 24 24 c17 17 23 34 23 67 0 55
-27 93 -78 107 -41 11 -255 14 -265 3z m233 -76 c31 -15 37 -52 14 -78 -14
-15 -31 -19 -91 -19 l-73 0 0 55 0 55 63 0 c34 0 73 -6 87 -13z m22 -184 c22
-20 23 -61 1 -85 -13 -14 -31 -18 -95 -18 l-78 0 0 60 0 60 77 0 c57 0 81 -4
95 -17z"/>
    <path d="M1545 2467 c-7 -18 -31 -84 -53 -147 -22 -63 -52 -145 -66 -183 -14
-37 -26 -72 -26 -77 0 -6 20 -10 45 -10 l45 0 11 45 12 46 90 -3 90 -3 15 -42
c14 -43 14 -43 63 -43 l49 0 -31 83 c-17 45 -48 132 -69 192 -21 61 -44 125
-50 143 -11 30 -15 32 -61 32 -47 0 -51 -2 -64 -33z m96 -162 l26 -85 -58 0
c-33 0 -59 4 -59 8 0 4 9 37 21 73 11 35 22 70 25 77 8 28 21 8 45 -73z"/>
    <path d="M1887 2494 c-4 -4 -7 -106 -7 -226 l0 -218 40 0 40 0 0 183 c1 120 4
176 10 166 5 -9 23 -81 40 -160 17 -79 33 -154 37 -166 4 -19 12 -23 48 -23
51 0 44 -16 86 185 17 83 35 157 40 165 5 9 9 -60 9 -167 l0 -183 40 0 40 0 0
225 0 225 -60 0 c-71 0 -70 3 -99 -140 -27 -126 -53 -219 -58 -205 -2 6 -20
85 -41 175 l-38 165 -60 3 c-33 2 -63 0 -67 -4z"/>
    <path d="M2487 1363 c-4 -3 -7 -44 -7 -90 l0 -83 -40 0 -40 0 0 -45 0 -45 39
0 39 0 4 -188 c3 -178 4 -190 29 -237 35 -69 101 -103 187 -96 7 1 12 17 12
46 0 43 -1 45 -30 45 -19 0 -42 11 -62 29 l-33 29 -4 186 -3 185 58 3 59 3 0
40 0 40 -55 5 -55 5 -3 88 -3 87 -43 0 c-23 0 -46 -3 -49 -7z"/>
    <path d="M1606 1195 c-51 -18 -92 -59 -112 -110 -13 -34 -15 -75 -12 -217 3
-172 3 -175 31 -217 34 -51 92 -80 159 -81 60 0 95 13 136 53 33 32 70 126 57
147 -3 5 -26 10 -50 10 -43 0 -45 -1 -55 -38 -17 -66 -65 -93 -123 -69 -52 22
-59 51 -55 232 l3 157 28 24 c39 33 81 31 118 -5 16 -16 29 -39 29 -50 0 -18
6 -21 50 -21 48 0 50 1 50 27 0 38 -35 106 -67 129 -59 44 -120 53 -187 29z"/>
    <path d="M2076 1196 c-21 -8 -51 -27 -67 -42 -30 -28 -65 -116 -54 -134 3 -5
26 -10 51 -10 42 0 45 2 51 30 13 69 93 91 144 41 25 -26 29 -37 29 -85 l0
-56 -75 0 c-56 0 -86 -5 -114 -20 -96 -49 -126 -160 -70 -260 56 -99 212 -123
298 -44 55 49 63 89 59 295 -3 159 -5 177 -25 209 -43 69 -149 105 -227 76z
m154 -411 c0 -57 -3 -69 -25 -90 -18 -19 -35 -25 -69 -25 -57 0 -86 32 -86 96
0 61 31 84 116 84 l64 0 0 -65z"/>
  </g>
</svg>
